<svg width="400" height="400" viewBox="0 0 400 400" fill="none" xmlns="http://www.w3.org/2000/svg">
<path d="M0 0H110V110H0V0Z" fill="#4DA3E8"/>
<path d="M400 290H0V300C0 355.228 44.7715 400 100 400H300C355.228 400 400 355.228 400 300V290Z" fill="url(#paint0_linear_752_15795)"/>
<path d="M100 400C44.7715 400 0 355.228 0 300L0 150H110L110 400H100Z" fill="#4DA3E8"/>
<path d="M290 400V0H300C355.228 0 400 44.7715 400 100V300C400 355.228 355.228 400 300 400H290Z" fill="url(#paint1_linear_752_15795)"/>
<path d="M150 0H300C355.228 0 400 44.7715 400 100V110H150V0Z" fill="#4DA3E8"/>
<defs>
<linearGradient id="paint0_linear_752_15795" x1="400" y1="345" x2="12" y2="338.5" gradientUnits="userSpaceOnUse">
<stop stop-color="#4DA3E8"/>
<stop offset="1" stop-color="#BEDCF4"/>
</linearGradient>
<linearGradient id="paint1_linear_752_15795" x1="345" y1="400" x2="338.5" y2="12" gradientUnits="userSpaceOnUse">
<stop stop-color="#4DA3E8"/>
<stop offset="1" stop-color="#BEDCF4"/>
</linearGradient>
</defs>
</svg>
